<svg width="25" height="26" viewBox="0 0 25 26" fill="none" xmlns="http://www.w3.org/2000/svg">
<path d="M12.5 0C5.59635 0 0 5.82021 0 13C0 20.1798 5.59635 26 12.5 26C19.4036 26 25 20.1798 25 13C25 5.82021 19.4036 0 12.5 0ZM17.3073 14.667C17.3073 14.667 18.4128 15.8018 18.6849 16.3285C18.6927 16.3394 18.6966 16.3502 18.6992 16.3556C18.8099 16.5493 18.8359 16.6996 18.7812 16.812C18.6901 16.9989 18.3776 17.0909 18.2708 17.0991H16.3177C16.1823 17.0991 15.8984 17.0625 15.5547 16.816C15.2904 16.6238 15.0299 16.3082 14.776 16.0008C14.3971 15.5431 14.069 15.1477 13.7383 15.1477C13.6963 15.1476 13.6545 15.1545 13.6146 15.168C13.3646 15.252 13.0443 15.623 13.0443 16.6116C13.0443 16.9203 12.8099 17.0977 12.6445 17.0977H11.75C11.4453 17.0977 9.85807 16.9867 8.45182 15.4443C6.73047 13.5552 5.18099 9.76625 5.16797 9.73104C5.07031 9.48594 5.27213 9.35458 5.49219 9.35458H7.46484C7.72786 9.35458 7.8138 9.52115 7.8737 9.66875C7.94401 9.84073 8.20182 10.5246 8.625 11.2937C9.3112 12.5477 9.73177 13.0569 10.069 13.0569C10.1322 13.0561 10.1944 13.0394 10.25 13.0081C10.6901 12.7535 10.6081 11.1218 10.5885 10.7832C10.5885 10.7196 10.5872 10.0533 10.362 9.73375C10.2005 9.50219 9.92578 9.41417 9.75911 9.38167C9.82657 9.28486 9.91545 9.20636 10.0182 9.15281C10.3203 8.99573 10.8646 8.97271 11.4049 8.97271H11.7057C12.2917 8.98083 12.4427 9.0201 12.6549 9.07562C13.0846 9.1826 13.0938 9.47104 13.056 10.4582C13.0443 10.7385 13.0326 11.0554 13.0326 11.4292C13.0326 11.5104 13.0286 11.5971 13.0286 11.6892C13.0156 12.1916 13 12.7617 13.3411 12.9959C13.3856 13.025 13.4371 13.0404 13.4896 13.0406C13.6081 13.0406 13.9648 13.0406 14.931 11.3168C15.229 10.7619 15.4879 10.1853 15.7057 9.59156C15.7253 9.55635 15.7826 9.44802 15.8503 9.40604C15.9002 9.37955 15.9556 9.36607 16.0117 9.36677H18.3307C18.5833 9.36677 18.7565 9.40604 18.7891 9.5076C18.8464 9.66875 18.7786 10.1603 17.7201 11.6512L17.2474 12.2999C16.2878 13.608 16.2878 13.6744 17.3073 14.667Z" fill="white"/>
</svg>
