<svg width="51" height="19" viewBox="0 0 51 19" fill="none" xmlns="http://www.w3.org/2000/svg">
<path d="M12.5615 3.14608C14.2273 3.14608 15.8248 3.8078 17.0027 4.98567C18.1805 6.16354 18.8422 7.76107 18.8422 9.42683C18.8422 11.0926 18.1805 12.6901 17.0027 13.868C15.8248 15.0459 14.2273 15.7076 12.5615 15.7076C10.8957 15.7076 9.2982 15.0459 8.12034 13.868C6.94247 12.6901 6.28075 11.0926 6.28075 9.42683C6.28075 7.76107 6.94247 6.16354 8.12034 4.98567C9.2982 3.8078 10.8957 3.14608 12.5615 3.14608ZM20.805 4.86386C19.8595 3.15315 18.4053 1.77888 16.6439 0.931463C14.8826 0.0840481 12.9012 -0.194545 10.9745 0.134286C9.04774 0.463118 7.27097 1.38309 5.89037 2.76673C4.50977 4.15037 3.59372 5.92917 3.26913 7.85664H1.57019C1.15375 7.85664 0.754364 8.02207 0.459897 8.31654C0.16543 8.611 0 9.01039 0 9.42683C0 9.84327 0.16543 10.2427 0.459897 10.5371C0.754364 10.8316 1.15375 10.997 1.57019 10.997H3.26913C3.65883 13.3301 4.91189 15.4312 6.77939 16.8829C8.64688 18.3347 10.9921 19.0308 13.3492 18.833C15.7063 18.6352 17.9028 17.558 19.5023 15.8154C21.1017 14.0727 21.9871 11.7922 21.9826 9.42683C21.9826 8.59395 22.3135 7.79518 22.9024 7.20625C23.4913 6.61731 24.2901 6.28645 25.123 6.28645C25.9559 6.28645 26.7546 6.61731 27.3436 7.20625C27.9325 7.79518 28.2634 8.59395 28.2634 9.42683C28.2588 11.7922 29.1442 14.0727 30.7437 15.8154C32.3432 17.558 34.5396 18.6352 36.8967 18.833C39.2538 19.0308 41.5991 18.3347 43.4666 16.8829C45.3341 15.4312 46.5872 13.3301 46.9768 10.997H48.6758C49.0922 10.997 49.4916 10.8316 49.7861 10.5371C50.0806 10.2427 50.246 9.84327 50.246 9.42683C50.246 9.01039 50.0806 8.611 49.7861 8.31654C49.4916 8.02207 49.0922 7.85664 48.6758 7.85664H46.9768C46.6523 5.92917 45.7362 4.15037 44.3556 2.76673C42.975 1.38309 41.1982 0.463118 39.2715 0.134286C37.3447 -0.194545 35.3634 0.0840481 33.602 0.931463C31.8407 1.77888 30.3865 3.15315 29.441 4.86386C28.2755 3.75833 26.7294 3.1433 25.123 3.14608C23.4523 3.14608 21.9324 3.79928 20.805 4.86386ZM43.9652 9.42683C43.9652 11.0926 43.3035 12.6901 42.1256 13.868C40.9478 15.0459 39.3502 15.7076 37.6845 15.7076C36.0187 15.7076 34.4212 15.0459 33.2433 13.868C32.0655 12.6901 31.4037 11.0926 31.4037 9.42683C31.4037 7.76107 32.0655 6.16354 33.2433 4.98567C34.4212 3.8078 36.0187 3.14608 37.6845 3.14608C39.3502 3.14608 40.9478 3.8078 42.1256 4.98567C43.3035 6.16354 43.9652 7.76107 43.9652 9.42683Z" fill="white"/>
</svg>
