<svg width="27" height="26" viewBox="0 0 27 26" fill="none" xmlns="http://www.w3.org/2000/svg">
<path d="M13.4964 8.66482C11.0175 8.66482 8.99454 10.6129 8.99454 13C8.99454 15.3871 11.0175 17.3352 13.4964 17.3352C15.9752 17.3352 17.9982 15.3871 17.9982 13C17.9982 10.6129 15.9752 8.66482 13.4964 8.66482ZM26.9985 13C26.9985 11.2048 27.0154 9.42584 26.9107 7.63387C26.806 5.55247 26.3129 3.70522 24.7324 2.18319C23.1485 0.657911 21.2336 0.186343 19.0722 0.0855244C17.2079 -0.0152937 15.3606 0.000967347 13.4997 0.000967347C11.6355 0.000967347 9.78819 -0.0152937 7.92734 0.0855244C5.76592 0.186343 3.84766 0.661163 2.26712 2.18319C0.683203 3.70847 0.193506 5.55247 0.0888122 7.63387C-0.0158816 9.42909 0.00100453 11.208 0.00100453 13C0.00100453 14.792 -0.0158816 16.5742 0.0888122 18.3661C0.193506 20.4475 0.68658 22.2948 2.26712 23.8168C3.85103 25.3421 5.76592 25.8137 7.92734 25.9145C9.79156 26.0153 11.6389 25.999 13.4997 25.999C15.364 25.999 17.2113 26.0153 19.0722 25.9145C21.2336 25.8137 23.1518 25.3388 24.7324 23.8168C26.3163 22.2915 26.806 20.4475 26.9107 18.3661C27.0188 16.5742 26.9985 14.7952 26.9985 13ZM13.4964 19.6703C9.66323 19.6703 6.56969 16.6912 6.56969 13C6.56969 9.30876 9.66323 6.32974 13.4964 6.32974C17.3295 6.32974 20.423 9.30876 20.423 13C20.423 16.6912 17.3295 19.6703 13.4964 19.6703ZM20.7067 7.61436C19.8118 7.61436 19.089 6.91839 19.089 6.05656C19.089 5.19473 19.8118 4.49876 20.7067 4.49876C21.6017 4.49876 22.3244 5.19473 22.3244 6.05656C22.3247 6.2612 22.283 6.46389 22.2018 6.65301C22.1206 6.84212 22.0015 7.01396 21.8512 7.15866C21.7009 7.30337 21.5225 7.41811 21.3261 7.4963C21.1297 7.5745 20.9192 7.61462 20.7067 7.61436Z" fill="white"/>
</svg>
